<svg xmlns="http://www.w3.org/2000/svg" version="1.0" width="500.000000" height="500.000000" preserveAspectRatio="xMidYMid meet" style=""><rect id="backgroundrect" width="100%" height="100%" x="0" y="0" fill="none" stroke="none"/>
<metadata>
Created by potrace 1.16, written by Peter Selinger 2001-2019
</metadata>

<g class="currentLayer" style=""><title>Layer 1</title><g transform="translate(0,500) scale(0.10000000149011612,-0.10000000149011612) " fill="#000000" stroke="#dadada" id="svg_1" class="" stroke-opacity="1" fill-opacity="1">
<path d="M3081 4658 c-10 -24 -49 -115 -87 -203 -139 -325 -430 -879 -654 -1245 -189 -308 -466 -702 -694 -985 -351 -438 -802 -871 -1043 -1005 -24 -13 -43 -26 -42 -29 0 -3 49 -161 108 -351 79 -254 111 -345 121 -343 8 0 58 19 111 41 212 89 481 165 734 211 129 23 124 18 214 186 106 196 162 374 180 575 8 80 14 107 27 117 23 17 55 16 79 -1 28 -20 16 -204 -24 -358 l-30 -117 23 -54 c96 -217 167 -515 182 -761 l7 -119 19 24 c30 39 124 191 184 300 176 318 293 688 325 1032 14 142 3 301 -31 481 -18 90 -18 102 -5 123 21 32 79 32 99 1 43 -66 79 -459 58 -641 l-10 -88 83 -162 c147 -286 274 -617 335 -869 15 -66 30 -121 32 -124 6 -6 102 257 137 375 111 373 156 722 133 1033 -22 301 -69 495 -179 730 -50 106 -51 135 -9 157 47 26 72 8 115 -82 77 -161 148 -397 176 -584 14 -93 16 -98 93 -217 166 -256 355 -612 453 -853 18 -46 36 -83 40 -83 7 0 75 207 108 330 161 601 142 1287 -51 1870 -225 680 -635 1242 -1221 1674 l-77 57 -19 -43z m190 -608 c33 -18 22 -64 -47 -203 -149 -296 -594 -1097 -637 -1144 -38 -42 -107 -19 -107 36 0 14 50 110 114 221 201 345 286 499 429 780 77 151 149 285 160 298 22 24 56 28 88 12z" id="svg_2" stroke="#dadada" stroke-opacity="1" fill="#000000" fill-opacity="1"/>
</g></g></svg>